<svg version="1.1" id="Layer_1" xmlns="http://www.w3.org/2000/svg" xmlns:xlink="http://www.w3.org/1999/xlink" x="0px" y="0px"
	 width="100%" viewBox="0 0 267 281" enable-background="new 0 0 267 281" xml:space="preserve">
<path fill="#FFFFFF" opacity="1.000000" stroke="none" 
	d="
M178.000000,282.000000 
	C118.693512,282.000000 59.887020,282.000000 1.040266,282.000000 
	C1.040266,188.402924 1.040266,94.805840 1.040266,1.104373 
	C89.889702,1.104373 178.779572,1.104373 267.834717,1.104373 
	C267.834717,94.666428 267.834717,188.333191 267.834717,282.000000 
	C238.139343,282.000000 208.319672,282.000000 178.000000,282.000000 
M188.485306,99.975784 
	C195.038269,108.497589 201.584396,117.024673 208.146103,125.539749 
	C215.115845,134.584366 222.092865,143.623383 229.082214,152.652832 
	C231.749268,156.098404 234.907303,158.562210 239.617004,157.166870 
	C247.170731,154.928955 248.567703,147.876114 242.824112,140.471619 
	C224.771088,117.198112 206.671204,93.960922 188.570786,70.724213 
	C182.083176,62.395611 176.669678,62.619881 169.874390,70.844109 
	C162.082504,80.274513 153.911285,89.391472 145.793839,98.772911 
	C132.633911,80.082184 119.761963,61.693596 106.766045,43.393040 
	C101.244156,35.617249 94.398315,35.626797 89.318146,43.256340 
	C67.496590,76.028503 45.696007,108.814644 23.900137,141.603882 
	C20.561319,146.626755 21.311617,152.109116 25.688150,155.195847 
	C29.901018,158.167145 35.498421,156.709717 38.827106,151.684250 
	C45.676071,141.344101 52.430843,130.941345 59.313133,120.623550 
	C72.130241,101.408432 85.010796,82.235634 98.231728,62.497620 
	C105.517738,72.714890 112.528725,82.463745 119.451584,92.274788 
	C128.791046,105.510635 138.028290,118.818680 147.381500,132.044754 
	C150.801117,136.880310 156.475677,138.013046 160.664764,134.916077 
	C164.918335,131.771423 165.418427,126.039871 161.867325,121.238556 
	C160.687851,119.643814 159.198120,118.168472 158.470200,116.385437 
	C157.911026,115.015724 157.638412,112.677971 158.412460,111.748611 
	C165.057846,103.769844 171.970612,96.013786 179.149017,87.795654 
	C182.277176,91.880829 185.159012,95.644310 188.485306,99.975784 
M165.500000,194.999146 
	C188.989151,194.999130 212.478302,195.008224 235.967453,194.992569 
	C241.703247,194.988754 245.485718,192.162735 246.041687,187.571747 
	C246.865479,180.769180 243.247025,177.007858 235.770035,177.006760 
	C167.968033,176.996780 100.166016,176.998474 32.364014,177.016754 
	C30.886963,177.017151 29.368074,177.077072 27.940958,177.414673 
	C23.938007,178.361603 21.742506,180.712250 21.713646,185.115051 
	C21.667551,192.146637 24.339832,194.994873 31.561422,194.995911 
	C75.874283,195.002304 120.187141,194.999146 165.500000,194.999146 
M79.500000,213.000854 
	C63.507401,213.000946 47.514698,212.967484 31.522251,213.017044 
	C24.808800,213.037842 21.870201,215.663681 21.760849,221.457413 
	C21.633747,228.191467 24.440252,230.994400 31.403696,230.995087 
	C99.538895,231.001740 167.674088,230.999161 235.809280,230.998611 
	C236.642197,230.998611 237.515091,231.153564 238.301315,230.959961 
	C242.415375,229.946808 245.607849,227.943863 246.066757,223.231064 
	C246.703140,216.695618 243.096954,213.010361 235.928207,213.008423 
	C184.118805,212.994385 132.309402,213.000870 79.500000,213.000854 
z"/>
<path fill="#658361" opacity="1.000000" stroke="none" 
	d="
M188.263077,99.691788 
	C185.159012,95.644310 182.277176,91.880829 179.149017,87.795654 
	C171.970612,96.013786 165.057846,103.769844 158.412460,111.748611 
	C157.638412,112.677971 157.911026,115.015724 158.470200,116.385437 
	C159.198120,118.168472 160.687851,119.643814 161.867325,121.238556 
	C165.418427,126.039871 164.918335,131.771423 160.664764,134.916077 
	C156.475677,138.013046 150.801117,136.880310 147.381500,132.044754 
	C138.028290,118.818680 128.791046,105.510635 119.451584,92.274788 
	C112.528725,82.463745 105.517738,72.714890 98.231728,62.497620 
	C85.010796,82.235634 72.130241,101.408432 59.313133,120.623550 
	C52.430843,130.941345 45.676071,141.344101 38.827106,151.684250 
	C35.498421,156.709717 29.901018,158.167145 25.688150,155.195847 
	C21.311617,152.109116 20.561319,146.626755 23.900137,141.603882 
	C45.696007,108.814644 67.496590,76.028503 89.318146,43.256340 
	C94.398315,35.626797 101.244156,35.617249 106.766045,43.393040 
	C119.761963,61.693596 132.633911,80.082184 145.793839,98.772911 
	C153.911285,89.391472 162.082504,80.274513 169.874390,70.844109 
	C176.669678,62.619881 182.083176,62.395611 188.570786,70.724213 
	C206.671204,93.960922 224.771088,117.198112 242.824112,140.471619 
	C248.567703,147.876114 247.170731,154.928955 239.617004,157.166870 
	C234.907303,158.562210 231.749268,156.098404 229.082214,152.652832 
	C222.092865,143.623383 215.115845,134.584366 208.146103,125.539749 
	C201.584396,117.024673 195.038269,108.497589 188.263077,99.691788 
z"/>
<path fill="#658361" opacity="1.000000" stroke="none" 
	d="
M165.000000,194.999146 
	C120.187141,194.999146 75.874283,195.002304 31.561422,194.995911 
	C24.339832,194.994873 21.667551,192.146637 21.713646,185.115051 
	C21.742506,180.712250 23.938007,178.361603 27.940958,177.414673 
	C29.368074,177.077072 30.886963,177.017151 32.364014,177.016754 
	C100.166016,176.998474 167.968033,176.996780 235.770035,177.006760 
	C243.247025,177.007858 246.865479,180.769180 246.041687,187.571747 
	C245.485718,192.162735 241.703247,194.988754 235.967453,194.992569 
	C212.478302,195.008224 188.989151,194.999130 165.000000,194.999146 
z"/>
<path fill="#658361" opacity="1.000000" stroke="none" 
	d="
M80.000000,213.000854 
	C132.309402,213.000870 184.118805,212.994385 235.928207,213.008423 
	C243.096954,213.010361 246.703140,216.695618 246.066757,223.231064 
	C245.607849,227.943863 242.415375,229.946808 238.301315,230.959961 
	C237.515091,231.153564 236.642197,230.998611 235.809280,230.998611 
	C167.674088,230.999161 99.538895,231.001740 31.403696,230.995087 
	C24.440252,230.994400 21.633747,228.191467 21.760849,221.457413 
	C21.870201,215.663681 24.808800,213.037842 31.522251,213.017044 
	C47.514698,212.967484 63.507401,213.000946 80.000000,213.000854 
z"/>
</svg>